<svg xmlns="http://www.w3.org/2000/svg" viewBox="0 0 240.96 342.4"><defs><style>.cls-1{isolation:isolate;}.cls-2,.cls-4{fill:#fff;}.cls-3,.cls-6,.cls-7{fill:none;}.cls-3{stroke:#000;stroke-width:3.28px;}.cls-3,.cls-4,.cls-6,.cls-7{stroke-miterlimit:10;}.cls-4,.cls-6,.cls-7{stroke:#0c0c0c;}.cls-4,.cls-7{stroke-linecap:round;}.cls-4,.cls-6{stroke-width:2.46px;}.cls-4{mix-blend-mode:hard-light;}.cls-5{fill:#0c0c0c;}.cls-7{stroke-width:1.64px;}</style></defs><title>hellocomicslogo [Recovered]</title><g class="cls-1"><g id="Layer_5" data-name="Layer 5"><path class="cls-2" d="M421.53,529.19c-14.3,0-27.92-5.1-39.5-9.44l-1-.36a28.73,28.73,0,0,0-5.75-1.72l-.75.45a29.36,29.36,0,0,1-11.67,4.57c-5.64.79-19.75.58-28.93-18.25-5.31-10.9-10.31-22.63-8.1-35.69,2.26-13.33,11.23-23.29,20.23-32.35,10.24-10.32,33.84-22.63,49.67-27.18l-3.14,28c-8.59,2.47-16.28,9.7-24.05,17.53-6.18,6.22-11.8,12.29-12.8,18.14-1,5.69,2.17,12.81,5.78,20.23.58-.28,1.19-.56,1.83-.82,11.9-4.82,23.6-.45,29.22,1.66l1,.36c12.4,4.65,25.22,9.45,34.46,6.38,6.06-2,11.24-7.55,17.23-14,6.21-6.63,13.24-14.15,23.1-19.27,2.5-1.3,5-2.32,7.14-3.22a41.67,41.67,0,0,0,5.95-2.81c3.87-2.51,5.18-9,2.55-12.56-1.89-2.58-5.83-5.13-9.64-7.6-5.83-3.78-11.85-7.69-17.53-8.87l-.55-28.07c11.59,2.41,28.19,9.74,35.67,14.59,5.47,3.54,12.27,8,17.24,14.73,11.74,16,7.09,39-10.16,50.14a65.36,65.36,0,0,1-10.93,5.42c-1.75.73-3.4,1.41-4.73,2.1-5.24,2.72-10,7.81-15,13.19-7.66,8.2-16.34,17.48-29.91,22A53.11,53.11,0,0,1,421.53,529.19Z" transform="translate(-323.25 -188.91)"/><path d="M421.53,527.07c-9.4,0-18.55-2.26-27.42-5.21-3.92-1.31-7.78-2.75-11.64-4.2-1.46-.54-2.91-1.09-4.4-1.53-1.32-.39-2.74-.87-4-.18-3,1.64-5.76,3.36-9.16,4.21-.56.13-1.11.25-1.68.35l-.88.14.26,0c-.36,0-.72.09-1.08.11-.83.07-1.66.09-2.49.08a19.56,19.56,0,0,1-5.8-.89,22.5,22.5,0,0,1-6.78-3.24c-6.23-4.28-9.71-11.08-12.77-17.77-3.68-8-6.61-16.64-6.18-25.59.41-8.52,4.06-16.28,9.06-23.05a97,97,0,0,1,7.85-9.1,81,81,0,0,1,7.49-7.1,116.78,116.78,0,0,1,18.7-11.95,148.15,148.15,0,0,1,21.09-9.37c1.53-.53,3.08-1,4.64-1.48l-2.68-2-2.75,24.55-.39,3.49,1.56-2c-9.72,2.87-17.35,10.41-24.32,17.4-3.81,3.81-7.68,7.69-10.69,12.19-2.5,3.74-4,7.9-3.43,12.45.73,6,3.49,11.59,6.1,17a2.17,2.17,0,0,0,2.9.76,30.45,30.45,0,0,1,18.71-2.12A79.12,79.12,0,0,1,394.58,497c6.45,2.41,13,4.88,19.8,6.11,5.83,1.06,11.84,1.14,17.24-1.6,5.77-2.92,10.29-8,14.64-12.69a142.24,142.24,0,0,1,12.68-12.48,65,65,0,0,1,16.73-9.86c2.71-1.12,5.75-2.11,8-4.05a11.5,11.5,0,0,0,3.59-6.58,10.68,10.68,0,0,0-1.44-8c-2-2.87-5.16-4.91-8-6.82-6.26-4.16-12.92-9-20.4-10.62l1.56,2-.48-24.62-.07-3.45-2.68,2a107.57,107.57,0,0,1,19,6.23,103.93,103.93,0,0,1,16,8.08c5.79,3.72,11.5,7.69,15.86,13.1a31.45,31.45,0,0,1,6.69,15.84,34.11,34.11,0,0,1-12.93,30.61,45.65,45.65,0,0,1-9.63,5.55c-3.33,1.49-6.87,2.65-10,4.56-6.49,4-11.46,10.09-16.65,15.56a85.28,85.28,0,0,1-14.68,12.88,49.58,49.58,0,0,1-21.63,7.91,57.5,57.5,0,0,1-6.29.34c-2.73,0-2.74,4.26,0,4.24a55.34,55.34,0,0,0,24.91-5.84,69.36,69.36,0,0,0,17-12.73c5.39-5.3,10.16-11.3,16-16.15,6.08-5.06,14.12-6.66,20.71-10.93a38.63,38.63,0,0,0,17.7-32,36,36,0,0,0-4.66-17.78c-3.7-6.51-9.42-11.5-15.51-15.71a121.75,121.75,0,0,0-36.1-16.71c-1.55-.43-3.11-.82-4.68-1.15a2.14,2.14,0,0,0-2.69,2l.48,24.63.07,3.44a2.16,2.16,0,0,0,1.56,2.05c6.4,1.39,12,5.39,17.41,8.9a47.49,47.49,0,0,1,7.4,5.42,6.39,6.39,0,0,1,2.14,5.54,7.46,7.46,0,0,1-2.56,5.1c-2.21,1.72-5.27,2.58-7.81,3.66A66.39,66.39,0,0,0,456.42,473a127.59,127.59,0,0,0-12.16,11.78c-4.15,4.45-8.31,9.39-13.63,12.48-4.71,2.75-10.1,2.73-15.34,1.76-6.57-1.21-12.89-3.58-19.14-5.91-4.74-1.76-9.45-3.58-14.46-4.42a35.08,35.08,0,0,0-21.21,2.67l2.9.77c-2.12-4.38-4.32-8.87-5.31-13.66a13.94,13.94,0,0,1,2.2-10.8c2.58-4.09,6.07-7.57,9.45-11a141.47,141.47,0,0,1,10.88-10.18,36.94,36.94,0,0,1,12.59-7.16,2.19,2.19,0,0,0,1.55-2l2.75-24.55.39-3.49a2.14,2.14,0,0,0-2.69-2.05,145.51,145.51,0,0,0-35.25,16.15,88.94,88.94,0,0,0-14.25,10.51,104.13,104.13,0,0,0-13.5,15.26,46.74,46.74,0,0,0-8.37,19.1A47.28,47.28,0,0,0,326,491.08a101.05,101.05,0,0,0,4.37,10.74,63.87,63.87,0,0,0,5.14,9.53,32.14,32.14,0,0,0,12.15,10.94A27.63,27.63,0,0,0,373,521.5c1.16-.62,2.28-1.32,3.41-2l-1.07.29c-.75-.1.65.16.9.23.65.17,1.29.37,1.93.58,1.38.46,2.73,1,4.08,1.48,4,1.52,8.11,3,12.22,4.34,8.76,2.83,17.85,4.86,27.09,4.89C424.25,531.33,424.26,527.09,421.53,527.07Z" transform="translate(-323.25 -188.91)"/><path class="cls-2" d="M388.05,424.17c-12.46,3.58-22,12.61-30.72,21.42C350,453,342.48,461,340.82,470.84c-1.63,9.61,2.65,19.15,7,28,2.48,5.1,6.73,11.08,12.8,10.24,3.35-.47,5.86-3,8.95-4.24,5.45-2.21,11.76-.25,17.28,1.82,14.86,5.56,31.31,11.95,46.4,6.94,18-6,26-25.59,42.63-34.21,4.7-2.44,10-3.93,14.38-6.78,10.54-6.83,13.53-21.57,6.35-31.35-3.38-4.62-8.47-7.94-13.44-11.17-7.09-4.6-14.44-9.31-22.95-11.07" transform="translate(-323.25 -188.91)"/><path d="M387.49,422.12c-11.62,3.41-20.94,11.34-29.38,19.7-8.11,8-17.59,17.09-19.41,28.91-1,6.68.49,13.34,2.93,19.56,1.23,3.14,2.66,6.21,4.13,9.24a33.39,33.39,0,0,0,4.19,6.69c3.49,4.2,8.67,6.37,13.92,4.12,2.5-1.08,4.64-3,7.25-3.77a16.52,16.52,0,0,1,8.85.14c6.27,1.54,12.23,4.35,18.35,6.39a82.88,82.88,0,0,0,19.4,4.32,40,40,0,0,0,18.38-2.6,46,46,0,0,0,12.62-8.08c7.51-6.55,13.48-14.71,21.27-20.95,4.38-3.51,9.32-5.68,14.44-7.85s9.86-4.9,13.28-9.48c5.77-7.71,6.69-18.9,1.46-27.13-3.25-5.13-8.36-8.71-13.35-12-5.23-3.43-10.51-6.92-16.26-9.42a46.46,46.46,0,0,0-8.79-2.91c-2.66-.57-3.8,3.52-1.13,4.09A53.3,53.3,0,0,1,475.86,428c5,3,10.14,6.08,14.57,9.85,3.72,3.18,6.57,7,7.59,11.81a20.52,20.52,0,0,1-1.45,12.41,21,21,0,0,1-9.23,9.8c-4.95,2.72-10.45,4.25-15.27,7.25-8.16,5.08-14.28,12.57-20.9,19.38-6.83,7-14.54,13.12-24.55,14.48-12.25,1.67-24.55-2.89-35.84-7.09-5.56-2.07-11.46-4.65-17.53-4.06a19.05,19.05,0,0,0-8.16,3c-2,1.2-4.1,2.53-6.52,2.16-4.34-.66-7.11-5.53-8.87-9.07-2.77-5.61-5.45-11.41-6.62-17.6a25.52,25.52,0,0,1,2.3-16.48c2.58-5.07,6.33-9.4,10.23-13.49,7.58-7.95,15.61-16.14,25.5-21.2a43,43,0,0,1,7.51-3c2.61-.76,1.5-4.86-1.13-4.09Z" transform="translate(-323.25 -188.91)"/><path class="cls-2" d="M393.39,432.38c-9.39,2.7-16.55,9.5-23.14,16.14-5.52,5.56-11.18,11.62-12.43,19s2,14.43,5.25,21.12c1.87,3.84,5.07,8.35,9.64,7.71,2.53-.35,4.42-2.25,6.75-3.19,4.1-1.67,8.85-.19,13,1.37,11.19,4.18,23.58,9,34.94,5.22C441,495.26,447,480.49,459.52,474c3.54-1.84,7.52-3,10.83-5.11,7.94-5.14,10.19-16.24,4.79-23.61-2.55-3.47-6.38-6-10.13-8.41-5.34-3.46-10.87-7-17.28-8.34" transform="translate(-323.25 -188.91)"/><path d="M392.83,430.34c-8.85,2.6-15.93,8.6-22.37,15-6.19,6.12-13.42,13.07-14.76,22.11-.76,5.12.37,10.19,2.24,14.95,1.66,4.2,3.48,8.67,6.38,12.17,2.62,3.16,6.65,5,10.66,3.39,2-.81,3.75-2.37,5.84-3a12.35,12.35,0,0,1,6.71.22c4.71,1.22,9.2,3.32,13.83,4.84a61.89,61.89,0,0,0,14.72,3.17,30.5,30.5,0,0,0,13.86-2.09,35.47,35.47,0,0,0,9.57-6.17c5.65-4.95,10.13-11.13,16-15.8,3.32-2.63,7.08-4.23,10.94-5.87s7.4-3.8,10-7.28c4.41-5.95,5.08-14.58,1.06-20.91-2.46-3.87-6.27-6.6-10-9.08a85.48,85.48,0,0,0-12.42-7.22,35,35,0,0,0-6.78-2.25c-2.66-.58-3.79,3.51-1.12,4.08a40.52,40.52,0,0,1,12.34,5.33,78.42,78.42,0,0,1,10.63,7.2,15.49,15.49,0,0,1,5.57,8.66,14.82,14.82,0,0,1-1.06,8.95,15.34,15.34,0,0,1-6.82,7.21c-3.74,2-7.87,3.19-11.49,5.46-6,3.77-10.63,9.3-15.53,14.37-5.06,5.23-10.65,9.79-18.05,11-9.09,1.45-18.39-2-26.76-5.12-4.17-1.55-8.5-3.46-13.05-3.27a13.16,13.16,0,0,0-6.16,1.81c-1.56.89-3.2,2.26-5.11,2.16-3.2-.16-5.28-3.76-6.55-6.27a52.8,52.8,0,0,1-5-13,18.82,18.82,0,0,1,1.57-12.5,43,43,0,0,1,7.55-10c5.69-6,11.7-12.13,19.11-15.94a33,33,0,0,1,5.6-2.23c2.61-.77,1.5-4.86-1.12-4.08Z" transform="translate(-323.25 -188.91)"/></g><g id="hand"><path class="cls-2" d="M448.5,473.5l10.8-76.62c.44-3.08.88-6,1-6.43l.15-.41c2.05-5.46,17.7-41.6,73.31-37.87.65,0,1.31.12,2,.21a75,75,0,0,0,11.71.7c20.18-.43,20.21-28,0-28.47-6.89-.17-15.71,1-27,4.54-5,1.57-10.52-1-11.86-5.69-2.61-8.16-3.49-20.8,10.75-42.94a25.72,25.72,0,0,0,3.3-8.94c2.82-22.09,10.6-43.25,16.81-64.71,1.12-3.87,1.86-11.84-4.76-11.05-5.12.62-8.66,11.59-10.05,14.81l-28.12,64.14C491,287.41,479,297,464.25,299.66l-.49.09c-.56.09-.42-2.32.31-5.34l4.08-15.71c.55-3.06,1.48-8.07,2.07-11.12,0,0,2.88-14.78,3.31-25.09.6-14.36-1.67-33.1-8.13-47.08-2.52-5.47-12.69-7.2-14.78-.53a48.91,48.91,0,0,0-1.46,6.17,93.53,93.53,0,0,0-1.59,19.32c.19,6.23,1.81,12.33,2.25,18.55,1.48,20.92-6.37,41.45-18.77,58.85.07-.11-12.15-21.52-13.06-24-3.48-9.46-5.72-19.24-8.35-28.91-4.15-15.29-10.68-43.4-29.56-49.59-5.16-1.7-12.78-.23-14.95,4.9-3.59,8.49,10.66,17.45,13.93,24.61,3.42,7.5,4,15.91,3.84,23.95-.27,13.35,2.81,19,10.88,30.27,2.73,3.81,4.89,8.3,4.16,12.8-1.08,6.72-8.77,10.46-14.29,5.27s-8.4-11.37-10.79-18c-4.59-12.64-.62-16-5.09-23.86-6.18-10.93-22-19.19-29.68-15.39-8.36,4.15-7,17.57-4.95,24.37,1.33,4.4,3.61,9.41,7.37,12.6,4.62,3.92,11.8,4.78,14.36,10.83,1.55,3.69.82,7-.52,10.3a21.35,21.35,0,0,0,1.7,19.75c3.83,6,7.94,14.29,7.48,21.43-.85,13.08,20.81,39.1,20.81,39.1a23.27,23.27,0,0,1,4.39,9.94s5.33,38.7-2.3,54.86c0,0,2.07,21.44-1.93,22.44" transform="translate(-323.25 -188.91)"/><path class="cls-3" d="M448.5,473.5l10.8-76.62c.44-3.08.88-6,1-6.43l.15-.41c2.05-5.46,17.7-41.6,73.31-37.87.65,0,1.31.12,2,.21a75,75,0,0,0,11.71.7c20.18-.43,20.21-28,0-28.47-6.89-.17-15.71,1-27,4.54-5,1.57-10.52-1-11.86-5.69-2.61-8.16-3.49-20.8,10.75-42.94a25.72,25.72,0,0,0,3.3-8.94c2.82-22.09,10.6-43.25,16.81-64.71,1.12-3.87,1.86-11.84-4.76-11.05-5.12.62-8.66,11.59-10.05,14.81l-28.12,64.14C491,287.41,479,297,464.25,299.66l-.49.09c-.56.09-.42-2.32.31-5.34l4.08-15.71c.55-3.06,1.48-8.07,2.07-11.12,0,0,2.88-14.78,3.31-25.09.6-14.36-1.67-33.1-8.13-47.08-2.52-5.47-12.69-7.2-14.78-.53a48.91,48.91,0,0,0-1.46,6.17,93.53,93.53,0,0,0-1.59,19.32c.19,6.23,1.81,12.33,2.25,18.55,1.48,20.92-6.37,41.45-18.77,58.85.07-.11-12.15-21.52-13.06-24-3.48-9.46-5.72-19.24-8.35-28.91-4.15-15.29-10.68-43.4-29.56-49.59-5.16-1.7-12.78-.23-14.95,4.9-3.59,8.49,10.66,17.45,13.93,24.61,3.42,7.5,4,15.91,3.84,23.95-.27,13.35,2.81,19,10.88,30.27,2.73,3.81,4.89,8.3,4.16,12.8-1.08,6.72-8.77,10.46-14.29,5.27s-8.4-11.37-10.79-18c-4.59-12.64-.62-16-5.09-23.86-6.18-10.93-22-19.19-29.68-15.39-8.36,4.15-7,17.57-4.95,24.37,1.33,4.4,3.61,9.41,7.37,12.6,4.62,3.92,11.8,4.78,14.36,10.83,1.55,3.69.82,7-.52,10.3a21.35,21.35,0,0,0,1.7,19.75c3.83,6,7.94,14.29,7.48,21.43-.85,13.08,20.81,39.1,20.81,39.1a23.27,23.27,0,0,1,4.39,9.94s5.33,38.7-2.3,54.86c0,0,2.07,21.44-1.93,22.44" transform="translate(-323.25 -188.91)"/></g><g id="Layer_3" data-name="Layer 3"><path class="cls-4" d="M389.52,345.09l3.72,2.38c1.74,1.13,3.6,2.13,5.38,3.21,3.55,2.17,7.1,4.36,10.87,6.22,5.88,2.89,12.45,5,19.12,4.6,5.64-.33,11-2.4,15.92-4.91,6.87-3.51,13.13-7.91,20-11.47-8.14-4-15.37-9.42-23.66-13.14-5.29-2.38-11.92-4.1-17.9-3.16-6.39,1-12,4.24-17.41,7.34l-15.87,9.14" transform="translate(-323.25 -188.91)"/><ellipse class="cls-5" cx="103.99" cy="155.84" rx="9.88" ry="9.41"/><ellipse class="cls-2" cx="106.73" cy="151.92" rx="3.25" ry="2.86"/><ellipse class="cls-6" cx="104.11" cy="155.81" rx="13.65" ry="13"/><path class="cls-7" d="M464.86,345.05c-5.56,2.58-24-19.92-37.69-19.65h.19c-13.76-.55-34.43,19.65-37.71,19.65" transform="translate(-323.25 -188.91)"/><path class="cls-5" d="M405.76,348.5a4.23,4.23,0,0,1-1-3,7.55,7.55,0,0,1,.11-1.8,1,1,0,0,1,.25-.47,6.66,6.66,0,0,1,.69-.62,1,1,0,0,0-1.45-1.45,4.11,4.11,0,0,0-1.41,1.81,7.44,7.44,0,0,0-.24,2.53,6.31,6.31,0,0,0,1.61,4.48,1,1,0,0,0,1.45-1.45Z" transform="translate(-323.25 -188.91)"/><path class="cls-5" d="M443,351.78a9.66,9.66,0,0,0,2.93-7.42,11,11,0,0,0-.5-4.19,6.88,6.88,0,0,0-2.72-2.89,1,1,0,0,0-1.4.37,1,1,0,0,0,.37,1.4,4.44,4.44,0,0,1,1.93,2.09,10.9,10.9,0,0,1,.27,3.47,7.54,7.54,0,0,1-2.33,5.72c-1,.86.45,2.31,1.45,1.45Z" transform="translate(-323.25 -188.91)"/><path class="cls-5" d="M448.63,348.89a6.26,6.26,0,0,0,1.62-4.47A7.86,7.86,0,0,0,450,342a4,4,0,0,0-1.42-1.87,1.05,1.05,0,0,0-1.45,0,1,1,0,0,0,0,1.45,2.27,2.27,0,0,1,.93,1.09,7.05,7.05,0,0,1,.12,1.8,4.24,4.24,0,0,1-1,3,1,1,0,0,0,1.45,1.45Z" transform="translate(-323.25 -188.91)"/></g></g></svg>